<svg width="25" height="33" viewBox="0 0 25 33" fill="none" xmlns="http://www.w3.org/2000/svg">
<mask id="path-1-inside-1_567_28364" fill="white">
<path fill-rule="evenodd" clip-rule="evenodd" d="M22.5428 19.0841C23.6453 17.2697 24.2803 15.1397 24.2803 12.8613C24.2803 6.23391 18.9077 0.861328 12.2803 0.861328C5.65286 0.861328 0.280273 6.23391 0.280273 12.8613C0.280273 15.1337 0.911918 17.2586 2.00921 19.07L8.81596 30.8597C10.3556 33.5263 14.2046 33.5263 15.7442 30.8597L22.5428 19.0841Z"/>
</mask>
<path fill-rule="evenodd" clip-rule="evenodd" d="M22.5428 19.0841C23.6453 17.2697 24.2803 15.1397 24.2803 12.8613C24.2803 6.23391 18.9077 0.861328 12.2803 0.861328C5.65286 0.861328 0.280273 6.23391 0.280273 12.8613C0.280273 15.1337 0.911918 17.2586 2.00921 19.07L8.81596 30.8597C10.3556 33.5263 14.2046 33.5263 15.7442 30.8597L22.5428 19.0841Z" fill="#4899EA"/>
<path d="M22.5428 19.0841L21.6882 18.5648L21.6823 18.5744L21.6767 18.5841L22.5428 19.0841ZM2.00921 19.07L2.87524 18.57L2.86997 18.5609L2.86452 18.5519L2.00921 19.07ZM8.81596 30.8597L7.94994 31.3597L8.81596 30.8597ZM15.7442 30.8597L16.6102 31.3597L15.7442 30.8597ZM23.2803 12.8613C23.2803 14.9514 22.6983 16.9025 21.6882 18.5648L23.3974 19.6034C24.5923 17.6369 25.2803 15.3279 25.2803 12.8613H23.2803ZM12.2803 1.86133C18.3554 1.86133 23.2803 6.7862 23.2803 12.8613H25.2803C25.2803 5.68163 19.46 -0.138672 12.2803 -0.138672V1.86133ZM1.28027 12.8613C1.28027 6.7862 6.20514 1.86133 12.2803 1.86133V-0.138672C5.10057 -0.138672 -0.719727 5.68163 -0.719727 12.8613H1.28027ZM2.86452 18.5519C1.8592 16.8924 1.28027 14.946 1.28027 12.8613H-0.719727C-0.719727 15.3215 -0.0353671 17.6249 1.15391 19.5881L2.86452 18.5519ZM9.68199 30.3597L2.87524 18.57L1.14319 19.57L7.94994 31.3597L9.68199 30.3597ZM21.6767 18.5841L14.8781 30.3597L16.6102 31.3597L23.4088 19.5841L21.6767 18.5841ZM7.94994 31.3597C9.87444 34.693 14.6857 34.693 16.6102 31.3597L14.8781 30.3597C13.7234 32.3597 10.8367 32.3597 9.68199 30.3597L7.94994 31.3597Z" fill="white" mask="url(#path-1-inside-1_567_28364)"/>
</svg>
