<svg width="20" height="20" viewBox="0 0 20 20" fill="none" xmlns="http://www.w3.org/2000/svg">
<rect x="0.5" y="0.5" width="19" height="19" rx="9.5" fill="#FF4262"/>
<rect x="0.5" y="0.5" width="19" height="19" rx="9.5" stroke="white"/>
<path d="M7.14844 5.51562V14H5.61328V7.00391H5.56641L3.58594 8.26953V6.875L5.68359 5.51562H7.14844ZM12.3398 14.1172C10.3008 14.1172 9.08203 12.5352 9.08203 9.75781C9.08203 6.99219 10.3008 5.39844 12.3398 5.39844C14.3672 5.39844 15.5977 6.99219 15.5977 9.75781C15.5977 12.5352 14.3789 14.1172 12.3398 14.1172ZM12.3398 12.8398C13.4062 12.8398 14.0625 11.7969 14.0625 9.75781C14.0625 7.73047 13.3945 6.66406 12.3398 6.66406C11.2852 6.66406 10.6172 7.73047 10.6172 9.75781C10.6172 11.7969 11.2734 12.8398 12.3398 12.8398Z" fill="white"/>
</svg>
