<svg width="20" height="20" viewBox="0 0 20 20" fill="none" xmlns="http://www.w3.org/2000/svg">
<rect x="0.5" y="0.5" width="19" height="19" rx="9.5" fill="#42B0FF"/>
<rect x="0.5" y="0.5" width="19" height="19" rx="9.5" stroke="white"/>
<path d="M9.87891 14.1172C8.22656 14.1055 6.5625 13.1211 6.57422 9.99219C6.57422 7.08594 7.89844 5.39844 9.97266 5.39844C11.6133 5.39844 12.7383 6.42969 12.9258 7.80078H11.4141C11.2617 7.15625 10.7461 6.72266 9.97266 6.72266C8.74219 6.72266 8.05078 7.8125 8.05078 9.59375H8.13281C8.56641 8.86719 9.38672 8.43359 10.3125 8.43359C11.8359 8.43359 13.0078 9.58203 13.0078 11.1875C13.0078 12.875 11.7539 14.1289 9.87891 14.1172ZM9.87891 12.8867C10.8281 12.8867 11.5312 12.1484 11.5312 11.2227C11.5312 10.3203 10.8398 9.59375 9.90234 9.59375C8.95312 9.59375 8.22656 10.3438 8.21484 11.2344C8.22656 12.125 8.91797 12.8867 9.87891 12.8867Z" fill="white"/>
</svg>
