<svg width="20" height="20" viewBox="0 0 20 20" fill="none" xmlns="http://www.w3.org/2000/svg">
<rect x="0.5" y="0.5" width="19" height="19" rx="9.5" fill="#0AC277"/>
<rect x="0.5" y="0.5" width="19" height="19" rx="9.5" stroke="white"/>
<path d="M3.75586 14V12.8984L6.75586 10.0039C7.61133 9.14844 8.05664 8.64453 8.05664 7.92969C8.05664 7.14453 7.43555 6.64062 6.60352 6.64062C5.72461 6.64062 5.16211 7.19141 5.17383 8.04688H3.7207C3.70898 6.44141 4.91602 5.39844 6.61523 5.39844C8.34961 5.39844 9.52148 6.42969 9.52148 7.85938C9.52148 8.82031 9.05273 9.59375 7.38867 11.1641L5.87695 12.6641V12.7227H9.65039V14H3.75586ZM14.1152 14.1172C12.0762 14.1172 10.8574 12.5352 10.8574 9.75781C10.8574 6.99219 12.0762 5.39844 14.1152 5.39844C16.1426 5.39844 17.373 6.99219 17.373 9.75781C17.373 12.5352 16.1543 14.1172 14.1152 14.1172ZM14.1152 12.8398C15.1816 12.8398 15.8379 11.7969 15.8379 9.75781C15.8379 7.73047 15.1699 6.66406 14.1152 6.66406C13.0605 6.66406 12.3926 7.73047 12.3926 9.75781C12.3926 11.7969 13.0488 12.8398 14.1152 12.8398Z" fill="white"/>
</svg>
