<svg width="20" height="20" viewBox="0 0 20 20" fill="none" xmlns="http://www.w3.org/2000/svg">
<rect x="0.5" y="0.5" width="19" height="19" rx="9.5" fill="#613EEA"/>
<rect x="0.5" y="0.5" width="19" height="19" rx="9.5" stroke="white"/>
<path d="M9.71484 5.39844C11.3789 5.41016 13.0195 6.39453 13.0312 9.5C13.0312 12.4297 11.707 14.1172 9.62109 14.1172C7.98047 14.1172 6.85547 13.0977 6.66797 11.6914H8.17969C8.33203 12.3594 8.84766 12.793 9.62109 12.793C10.8516 12.793 11.543 11.7031 11.5547 9.88672H11.4609C11.0273 10.625 10.2188 11.0586 9.28125 11.0586C7.76953 11.0586 6.59766 9.91016 6.58594 8.30469C6.58594 6.64062 7.82812 5.38672 9.71484 5.39844ZM9.72656 6.62891C8.77734 6.62891 8.0625 7.36719 8.07422 8.26953C8.07422 9.18359 8.75391 9.89844 9.70312 9.89844C10.6406 9.89844 11.3789 9.13672 11.3672 8.25781C11.3672 7.39062 10.6758 6.62891 9.72656 6.62891Z" fill="white"/>
</svg>
