<svg width="20" height="20" viewBox="0 0 20 20" fill="none" xmlns="http://www.w3.org/2000/svg">
<rect x="0.5" y="0.5" width="19" height="19" rx="9.5" fill="#FF4262"/>
<rect x="0.5" y="0.5" width="19" height="19" rx="9.5" stroke="white"/>
<path d="M2.90234 14V12.8984L5.90234 10.0039C6.75781 9.14844 7.20312 8.64453 7.20312 7.92969C7.20312 7.14453 6.58203 6.64062 5.75 6.64062C4.87109 6.64062 4.30859 7.19141 4.32031 8.04688H2.86719C2.85547 6.44141 4.0625 5.39844 5.76172 5.39844C7.49609 5.39844 8.66797 6.42969 8.66797 7.85938C8.66797 8.82031 8.19922 9.59375 6.53516 11.1641L5.02344 12.6641V12.7227H8.79688V14H2.90234ZM13.2148 14.1172C11.3281 14.1172 9.99219 13.1094 9.99219 11.7266C9.99219 10.6484 10.7891 9.76953 11.8086 9.60547V9.55859C10.918 9.37109 10.3086 8.59766 10.3086 7.67188C10.3086 6.35938 11.5391 5.39844 13.2148 5.39844C14.8789 5.39844 16.1094 6.35938 16.1094 7.67188C16.1094 8.59766 15.4883 9.37109 14.6094 9.55859V9.60547C15.6289 9.76953 16.4375 10.6484 16.4375 11.7266C16.4375 13.1094 15.0898 14.1172 13.2148 14.1172ZM13.2148 12.9102C14.2109 12.9102 14.8672 12.3711 14.8672 11.5859C14.8672 10.7891 14.1641 10.2031 13.2148 10.2031C12.2539 10.2031 11.5508 10.7891 11.5625 11.5859C11.5508 12.3711 12.207 12.9102 13.2148 12.9102ZM13.2148 9.06641C14.0352 9.06641 14.6211 8.55078 14.6211 7.8125C14.6211 7.09766 14.0469 6.59375 13.2148 6.59375C12.3711 6.59375 11.7969 7.08594 11.7969 7.8125C11.7969 8.55078 12.3828 9.06641 13.2148 9.06641Z" fill="white"/>
</svg>
