<svg width="20" height="20" viewBox="0 0 20 20" fill="none" xmlns="http://www.w3.org/2000/svg">
<rect x="0.5" y="0.5" width="19" height="19" rx="9.5" fill="#42B0FF"/>
<rect x="0.5" y="0.5" width="19" height="19" rx="9.5" stroke="white"/>
<path d="M6.53906 14.1172C4.72266 14.1172 3.43359 13.1328 3.39844 11.7031H4.93359C4.98047 12.3828 5.66016 12.8281 6.53906 12.8281C7.47656 12.8281 8.14453 12.3125 8.14453 11.5625C8.14453 10.8008 7.48828 10.25 6.38672 10.25H5.625V9.07812H6.38672C7.28906 9.07812 7.92188 8.57422 7.91016 7.83594C7.92188 7.12109 7.38281 6.64062 6.55078 6.64062C5.75391 6.64062 5.0625 7.08594 5.03906 7.80078H3.57422C3.60938 6.37109 4.89844 5.39844 6.5625 5.39844C8.28516 5.39844 9.39844 6.45312 9.38672 7.75391C9.39844 8.70312 8.76562 9.39453 7.83984 9.58203V9.65234C9.03516 9.81641 9.71484 10.5781 9.70312 11.6445C9.71484 13.0742 8.37891 14.1172 6.53906 14.1172ZM14.168 14.1172C12.1289 14.1172 10.9102 12.5352 10.9102 9.75781C10.9102 6.99219 12.1289 5.39844 14.168 5.39844C16.1953 5.39844 17.4258 6.99219 17.4258 9.75781C17.4258 12.5352 16.207 14.1172 14.168 14.1172ZM14.168 12.8398C15.2344 12.8398 15.8906 11.7969 15.8906 9.75781C15.8906 7.73047 15.2227 6.66406 14.168 6.66406C13.1133 6.66406 12.4453 7.73047 12.4453 9.75781C12.4453 11.7969 13.1016 12.8398 14.168 12.8398Z" fill="white"/>
</svg>
