<svg width="20" height="20" viewBox="0 0 20 20" fill="none" xmlns="http://www.w3.org/2000/svg">
<rect x="0.5" y="0.5" width="19" height="19" rx="9.5" fill="#1A80E5"/>
<rect x="0.5" y="0.5" width="19" height="19" rx="9.5" stroke="white"/>
<path d="M3.06641 14V12.8984L6.06641 10.0039C6.92188 9.14844 7.36719 8.64453 7.36719 7.92969C7.36719 7.14453 6.74609 6.64062 5.91406 6.64062C5.03516 6.64062 4.47266 7.19141 4.48438 8.04688H3.03125C3.01953 6.44141 4.22656 5.39844 5.92578 5.39844C7.66016 5.39844 8.83203 6.42969 8.83203 7.85938C8.83203 8.82031 8.36328 9.59375 6.69922 11.1641L5.1875 12.6641V12.7227H8.96094V14H3.06641ZM13.3086 14.1172C11.6094 14.1172 10.3672 13.1094 10.3203 11.7031H11.8086C11.8555 12.3945 12.5 12.8867 13.3086 12.8867C14.2578 12.8867 14.9375 12.1953 14.9375 11.2578C14.9375 10.2852 14.2344 9.59375 13.2617 9.59375C12.6055 9.58203 12.125 9.81641 11.8555 10.3203H10.4375L10.9531 5.51562H15.9688V6.79297H12.207L11.9492 9.04297H12.0312C12.3594 8.66797 12.9805 8.39844 13.6719 8.39844C15.2539 8.39844 16.4141 9.58203 16.4141 11.2109C16.4141 12.9102 15.1367 14.1172 13.3086 14.1172Z" fill="white"/>
</svg>
