<svg width="20" height="20" viewBox="0 0 20 20" fill="none" xmlns="http://www.w3.org/2000/svg">
<rect x="0.5" y="0.5" width="19" height="19" rx="9.5" fill="#0AC277"/>
<rect x="0.5" y="0.5" width="19" height="19" rx="9.5" stroke="white"/>
<path d="M10 14.1172C8.11328 14.1172 6.77734 13.1094 6.77734 11.7266C6.77734 10.6484 7.57422 9.76953 8.59375 9.60547V9.55859C7.70312 9.37109 7.09375 8.59766 7.09375 7.67188C7.09375 6.35938 8.32422 5.39844 10 5.39844C11.6641 5.39844 12.8945 6.35938 12.8945 7.67188C12.8945 8.59766 12.2734 9.37109 11.3945 9.55859V9.60547C12.4141 9.76953 13.2227 10.6484 13.2227 11.7266C13.2227 13.1094 11.875 14.1172 10 14.1172ZM10 12.9102C10.9961 12.9102 11.6523 12.3711 11.6523 11.5859C11.6523 10.7891 10.9492 10.2031 10 10.2031C9.03906 10.2031 8.33594 10.7891 8.34766 11.5859C8.33594 12.3711 8.99219 12.9102 10 12.9102ZM10 9.06641C10.8203 9.06641 11.4062 8.55078 11.4062 7.8125C11.4062 7.09766 10.832 6.59375 10 6.59375C9.15625 6.59375 8.58203 7.08594 8.58203 7.8125C8.58203 8.55078 9.16797 9.06641 10 9.06641Z" fill="white"/>
</svg>
