<svg width="20" height="20" viewBox="0 0 20 20" fill="none" xmlns="http://www.w3.org/2000/svg">
<rect x="0.5" y="0.5" width="19" height="19" rx="9.5" fill="#1A80E5"/>
<rect x="0.5" y="0.5" width="19" height="19" rx="9.5" stroke="white"/>
<path d="M7.59766 5.51562V14H6.0625V7.00391H6.01562L4.03516 8.26953V6.875L6.13281 5.51562H7.59766ZM12.6719 5.39844C14.3359 5.41016 15.9766 6.39453 15.9883 9.5C15.9883 12.4297 14.6641 14.1172 12.5781 14.1172C10.9375 14.1172 9.8125 13.0977 9.625 11.6914H11.1367C11.2891 12.3594 11.8047 12.793 12.5781 12.793C13.8086 12.793 14.5 11.7031 14.5117 9.88672H14.418C13.9844 10.625 13.1758 11.0586 12.2383 11.0586C10.7266 11.0586 9.55469 9.91016 9.54297 8.30469C9.54297 6.64062 10.7852 5.38672 12.6719 5.39844ZM12.6836 6.62891C11.7344 6.62891 11.0195 7.36719 11.0312 8.26953C11.0312 9.18359 11.7109 9.89844 12.6602 9.89844C13.5977 9.89844 14.3359 9.13672 14.3242 8.25781C14.3242 7.39062 13.6328 6.62891 12.6836 6.62891Z" fill="white"/>
</svg>
