<svg width="20" height="20" viewBox="0 0 20 20" fill="none" xmlns="http://www.w3.org/2000/svg">
<rect x="0.5" y="0.5" width="19" height="19" rx="9.5" fill="#FFA842"/>
<rect x="0.5" y="0.5" width="19" height="19" rx="9.5" stroke="white"/>
<path d="M9.71484 14.1172C8.01562 14.1172 6.77344 13.1094 6.72656 11.7031H8.21484C8.26172 12.3945 8.90625 12.8867 9.71484 12.8867C10.6641 12.8867 11.3438 12.1953 11.3438 11.2578C11.3438 10.2852 10.6406 9.59375 9.66797 9.59375C9.01172 9.58203 8.53125 9.81641 8.26172 10.3203H6.84375L7.35938 5.51562H12.375V6.79297H8.61328L8.35547 9.04297H8.4375C8.76562 8.66797 9.38672 8.39844 10.0781 8.39844C11.6602 8.39844 12.8203 9.58203 12.8203 11.2109C12.8203 12.9102 11.543 14.1172 9.71484 14.1172Z" fill="white"/>
</svg>
