<svg width="20" height="20" viewBox="0 0 20 20" fill="none" xmlns="http://www.w3.org/2000/svg">
<rect x="0.5" y="0.5" width="19" height="19" rx="9.5" fill="#613EEA"/>
<rect x="0.5" y="0.5" width="19" height="19" rx="9.5" stroke="white"/>
<path d="M4.83398 14V12.8984L7.83398 10.0039C8.68945 9.14844 9.13477 8.64453 9.13477 7.92969C9.13477 7.14453 8.51367 6.64062 7.68164 6.64062C6.80273 6.64062 6.24023 7.19141 6.25195 8.04688H4.79883C4.78711 6.44141 5.99414 5.39844 7.69336 5.39844C9.42773 5.39844 10.5996 6.42969 10.5996 7.85938C10.5996 8.82031 10.1309 9.59375 8.4668 11.1641L6.95508 12.6641V12.7227H10.7285V14H4.83398ZM15.5098 5.51562V14H13.9746V7.00391H13.9277L11.9473 8.26953V6.875L14.0449 5.51562H15.5098Z" fill="white"/>
</svg>
