<svg width="20" height="20" viewBox="0 0 20 20" fill="none" xmlns="http://www.w3.org/2000/svg">
<rect x="0.5" y="0.5" width="19" height="19" rx="9.5" fill="#1A80E5"/>
<rect x="0.5" y="0.5" width="19" height="19" rx="9.5" stroke="white"/>
<path d="M8.05859 5.51562V14H6.52344V7.00391H6.47656L4.49609 8.26953V6.875L6.59375 5.51562H8.05859ZM13.2031 14.1172C11.3867 14.1172 10.0977 13.1328 10.0625 11.7031H11.5977C11.6445 12.3828 12.3242 12.8281 13.2031 12.8281C14.1406 12.8281 14.8086 12.3125 14.8086 11.5625C14.8086 10.8008 14.1523 10.25 13.0508 10.25H12.2891V9.07812H13.0508C13.9531 9.07812 14.5859 8.57422 14.5742 7.83594C14.5859 7.12109 14.0469 6.64062 13.2148 6.64062C12.418 6.64062 11.7266 7.08594 11.7031 7.80078H10.2383C10.2734 6.37109 11.5625 5.39844 13.2266 5.39844C14.9492 5.39844 16.0625 6.45312 16.0508 7.75391C16.0625 8.70312 15.4297 9.39453 14.5039 9.58203V9.65234C15.6992 9.81641 16.3789 10.5781 16.3672 11.6445C16.3789 13.0742 15.043 14.1172 13.2031 14.1172Z" fill="white"/>
</svg>
