<svg width="20" height="20" viewBox="0 0 20 20" fill="none" xmlns="http://www.w3.org/2000/svg">
<rect x="0.5" y="0.5" width="19" height="19" rx="9.5" fill="#FF4262"/>
<rect x="0.5" y="0.5" width="19" height="19" rx="9.5" stroke="white"/>
<path d="M3.97266 14V12.8984L6.97266 10.0039C7.82812 9.14844 8.27344 8.64453 8.27344 7.92969C8.27344 7.14453 7.65234 6.64062 6.82031 6.64062C5.94141 6.64062 5.37891 7.19141 5.39062 8.04688H3.9375C3.92578 6.44141 5.13281 5.39844 6.83203 5.39844C8.56641 5.39844 9.73828 6.42969 9.73828 7.85938C9.73828 8.82031 9.26953 9.59375 7.60547 11.1641L6.09375 12.6641V12.7227H9.86719V14H3.97266ZM11.2031 14V12.8984L14.2031 10.0039C15.0586 9.14844 15.5039 8.64453 15.5039 7.92969C15.5039 7.14453 14.8828 6.64062 14.0508 6.64062C13.1719 6.64062 12.6094 7.19141 12.6211 8.04688H11.168C11.1562 6.44141 12.3633 5.39844 14.0625 5.39844C15.7969 5.39844 16.9688 6.42969 16.9688 7.85938C16.9688 8.82031 16.5 9.59375 14.8359 11.1641L13.3242 12.6641V12.7227H17.0977V14H11.2031Z" fill="white"/>
</svg>
