<svg width="20" height="20" viewBox="0 0 20 20" fill="none" xmlns="http://www.w3.org/2000/svg">
<rect x="0.5" y="0.5" width="19" height="19" rx="9.5" fill="#613EEA"/>
<rect x="0.5" y="0.5" width="19" height="19" rx="9.5" stroke="white"/>
<path d="M7.23438 5.51562V14H5.69922V7.00391H5.65234L3.67188 8.26953V6.875L5.76953 5.51562H7.23438ZM12.3086 14.1172C10.6094 14.1172 9.36719 13.1094 9.32031 11.7031H10.8086C10.8555 12.3945 11.5 12.8867 12.3086 12.8867C13.2578 12.8867 13.9375 12.1953 13.9375 11.2578C13.9375 10.2852 13.2344 9.59375 12.2617 9.59375C11.6055 9.58203 11.125 9.81641 10.8555 10.3203H9.4375L9.95312 5.51562H14.9688V6.79297H11.207L10.9492 9.04297H11.0312C11.3594 8.66797 11.9805 8.39844 12.6719 8.39844C14.2539 8.39844 15.4141 9.58203 15.4141 11.2109C15.4141 12.9102 14.1367 14.1172 12.3086 14.1172Z" fill="white"/>
</svg>
