<svg width="20" height="20" viewBox="0 0 20 20" fill="none" xmlns="http://www.w3.org/2000/svg">
<rect x="0.5" y="0.5" width="19" height="19" rx="9.5" fill="#FFA842"/>
<rect x="0.5" y="0.5" width="19" height="19" rx="9.5" stroke="white"/>
<path d="M2.87891 14V12.8984L5.87891 10.0039C6.73438 9.14844 7.17969 8.64453 7.17969 7.92969C7.17969 7.14453 6.55859 6.64062 5.72656 6.64062C4.84766 6.64062 4.28516 7.19141 4.29688 8.04688H2.84375C2.83203 6.44141 4.03906 5.39844 5.73828 5.39844C7.47266 5.39844 8.64453 6.42969 8.64453 7.85938C8.64453 8.82031 8.17578 9.59375 6.51172 11.1641L5 12.6641V12.7227H8.77344V14H2.87891ZM13.1211 5.39844C14.7852 5.41016 16.4258 6.39453 16.4375 9.5C16.4375 12.4297 15.1133 14.1172 13.0273 14.1172C11.3867 14.1172 10.2617 13.0977 10.0742 11.6914H11.5859C11.7383 12.3594 12.2539 12.793 13.0273 12.793C14.2578 12.793 14.9492 11.7031 14.9609 9.88672H14.8672C14.4336 10.625 13.625 11.0586 12.6875 11.0586C11.1758 11.0586 10.0039 9.91016 9.99219 8.30469C9.99219 6.64062 11.2344 5.38672 13.1211 5.39844ZM13.1328 6.62891C12.1836 6.62891 11.4688 7.36719 11.4805 8.26953C11.4805 9.18359 12.1602 9.89844 13.1094 9.89844C14.0469 9.89844 14.7852 9.13672 14.7734 8.25781C14.7734 7.39062 14.082 6.62891 13.1328 6.62891Z" fill="white"/>
</svg>
