<svg width="20" height="20" viewBox="0 0 20 20" fill="none" xmlns="http://www.w3.org/2000/svg">
<rect x="0.5" y="0.5" width="19" height="19" rx="9.5" fill="#FFA842"/>
<rect x="0.5" y="0.5" width="19" height="19" rx="9.5" stroke="white"/>
<path d="M3.79688 14V12.8984L6.79688 10.0039C7.65234 9.14844 8.09766 8.64453 8.09766 7.92969C8.09766 7.14453 7.47656 6.64062 6.64453 6.64062C5.76562 6.64062 5.20312 7.19141 5.21484 8.04688H3.76172C3.75 6.44141 4.95703 5.39844 6.65625 5.39844C8.39062 5.39844 9.5625 6.42969 9.5625 7.85938C9.5625 8.82031 9.09375 9.59375 7.42969 11.1641L5.91797 12.6641V12.7227H9.69141V14H3.79688ZM14.1094 14.1172C12.293 14.1172 11.0039 13.1328 10.9688 11.7031H12.5039C12.5508 12.3828 13.2305 12.8281 14.1094 12.8281C15.0469 12.8281 15.7148 12.3125 15.7148 11.5625C15.7148 10.8008 15.0586 10.25 13.957 10.25H13.1953V9.07812H13.957C14.8594 9.07812 15.4922 8.57422 15.4805 7.83594C15.4922 7.12109 14.9531 6.64062 14.1211 6.64062C13.3242 6.64062 12.6328 7.08594 12.6094 7.80078H11.1445C11.1797 6.37109 12.4688 5.39844 14.1328 5.39844C15.8555 5.39844 16.9688 6.45312 16.957 7.75391C16.9688 8.70312 16.3359 9.39453 15.4102 9.58203V9.65234C16.6055 9.81641 17.2852 10.5781 17.2734 11.6445C17.2852 13.0742 15.9492 14.1172 14.1094 14.1172Z" fill="white"/>
</svg>
