<svg width="20" height="20" viewBox="0 0 20 20" fill="none" xmlns="http://www.w3.org/2000/svg">
<rect x="0.5" y="0.5" width="19" height="19" rx="9.5" fill="#42B0FF"/>
<rect x="0.5" y="0.5" width="19" height="19" rx="9.5" stroke="white"/>
<path d="M7.2793 5.51562V14H5.74414V7.00391H5.69727L3.7168 8.26953V6.875L5.81445 5.51562H7.2793ZM9.3418 14V12.8984L12.3418 10.0039C13.1973 9.14844 13.6426 8.64453 13.6426 7.92969C13.6426 7.14453 13.0215 6.64062 12.1895 6.64062C11.3105 6.64062 10.748 7.19141 10.7598 8.04688H9.30664C9.29492 6.44141 10.502 5.39844 12.2012 5.39844C13.9355 5.39844 15.1074 6.42969 15.1074 7.85938C15.1074 8.82031 14.6387 9.59375 12.9746 11.1641L11.4629 12.6641V12.7227H15.2363V14H9.3418Z" fill="white"/>
</svg>
