<svg width="20" height="20" viewBox="0 0 20 20" fill="none" xmlns="http://www.w3.org/2000/svg">
<rect x="0.5" y="0.5" width="19" height="19" rx="9.5" fill="#613EEA"/>
<rect x="0.5" y="0.5" width="19" height="19" rx="9.5" stroke="white"/>
<path d="M3.66406 14V12.8984L6.66406 10.0039C7.51953 9.14844 7.96484 8.64453 7.96484 7.92969C7.96484 7.14453 7.34375 6.64062 6.51172 6.64062C5.63281 6.64062 5.07031 7.19141 5.08203 8.04688H3.62891C3.61719 6.44141 4.82422 5.39844 6.52344 5.39844C8.25781 5.39844 9.42969 6.42969 9.42969 7.85938C9.42969 8.82031 8.96094 9.59375 7.29688 11.1641L5.78516 12.6641V12.7227H9.55859V14H3.66406ZM11.2109 14L14.8906 6.85156V6.79297H10.625V5.51562H16.4727V6.81641L12.793 14H11.2109Z" fill="white"/>
</svg>
