<svg width="24" height="24" viewBox="0 0 24 24" fill="none" xmlns="http://www.w3.org/2000/svg">
<rect x="0.5" y="0.5" width="23" height="23" rx="11.5" fill="#FFA842"/>
<rect x="0.5" y="0.5" width="23" height="23" rx="11.5" stroke="white"/>
<mask id="mask0_1337_33437" style="mask-type:alpha" maskUnits="userSpaceOnUse" x="4" y="4" width="16" height="16">
<path d="M11.9933 17.993C11.6241 17.993 11.2549 17.8807 10.9404 17.6491C5.36819 13.586 5.32033 10.3719 5.334 10.014V9.85263C5.334 7.72632 6.97491 6 8.98501 6C10.3251 6 11.378 6.88421 12.0002 7.92281C12.6223 6.88421 13.6821 6 15.0153 6C17.0254 6 18.6663 7.72632 18.6663 9.85263C18.6663 9.95789 18.6663 10.0561 18.6527 10.1614C18.6527 10.7158 18.3929 13.7544 13.0394 17.6561C12.7249 17.8877 12.3557 18 11.9865 18L11.9933 17.993Z" fill="#3B3E43"/>
</mask>
<g mask="url(#mask0_1337_33437)">
<rect x="4" y="4" width="16" height="16" fill="white"/>
</g>
</svg>
