<svg width="20" height="20" viewBox="0 0 20 20" fill="none" xmlns="http://www.w3.org/2000/svg">
<rect x="0.5" y="0.5" width="19" height="19" rx="9.5" fill="#FF4262"/>
<rect x="0.5" y="0.5" width="19" height="19" rx="9.5" stroke="white"/>
<path d="M8.04688 5.51562V14H6.51172V7.00391H6.46484L4.48438 8.26953V6.875L6.58203 5.51562H8.04688ZM13.2852 14.1172C11.6328 14.1055 9.96875 13.1211 9.98047 9.99219C9.98047 7.08594 11.3047 5.39844 13.3789 5.39844C15.0195 5.39844 16.1445 6.42969 16.332 7.80078H14.8203C14.668 7.15625 14.1523 6.72266 13.3789 6.72266C12.1484 6.72266 11.457 7.8125 11.457 9.59375H11.5391C11.9727 8.86719 12.793 8.43359 13.7188 8.43359C15.2422 8.43359 16.4141 9.58203 16.4141 11.1875C16.4141 12.875 15.1602 14.1289 13.2852 14.1172ZM13.2852 12.8867C14.2344 12.8867 14.9375 12.1484 14.9375 11.2227C14.9375 10.3203 14.2461 9.59375 13.3086 9.59375C12.3594 9.59375 11.6328 10.3438 11.6211 11.2344C11.6328 12.125 12.3242 12.8867 13.2852 12.8867Z" fill="white"/>
</svg>
