<svg width="20" height="20" viewBox="0 0 20 20" fill="none" xmlns="http://www.w3.org/2000/svg">
<rect x="0.5" y="0.5" width="19" height="19" rx="9.5" fill="#42B0FF"/>
<rect x="0.5" y="0.5" width="19" height="19" rx="9.5" stroke="white"/>
<path d="M3.80859 14V12.8984L6.80859 10.0039C7.66406 9.14844 8.10938 8.64453 8.10938 7.92969C8.10938 7.14453 7.48828 6.64062 6.65625 6.64062C5.77734 6.64062 5.21484 7.19141 5.22656 8.04688H3.77344C3.76172 6.44141 4.96875 5.39844 6.66797 5.39844C8.40234 5.39844 9.57422 6.42969 9.57422 7.85938C9.57422 8.82031 9.10547 9.59375 7.44141 11.1641L5.92969 12.6641V12.7227H9.70312V14H3.80859ZM10.6992 12.418V11.1992L14.3672 5.51562H16.2656V11.1641H17.3789V12.418H16.2656V14H14.8125V12.418H10.6992ZM12.2578 11.1641H14.8359V7.25H14.7422L12.2578 11.1055V11.1641Z" fill="white"/>
</svg>
