<svg width="37" height="51" viewBox="0 0 37 51" fill="none" xmlns="http://www.w3.org/2000/svg">
<mask id="path-1-inside-1_567_28330" fill="white">
<path fill-rule="evenodd" clip-rule="evenodd" d="M33.896 27.716C35.549 24.9947 36.5009 21.8004 36.5009 18.3838C36.5009 8.44211 28.4416 0.382812 18.5 0.382812C8.55832 0.382812 0.499023 8.44211 0.499023 18.3838C0.499023 21.8005 1.45093 24.9948 3.10401 27.7161L15.0359 48.3827C16.5755 51.0494 20.4245 51.0494 21.9641 48.3827L33.896 27.716Z"/>
</mask>
<path fill-rule="evenodd" clip-rule="evenodd" d="M33.896 27.716C35.549 24.9947 36.5009 21.8004 36.5009 18.3838C36.5009 8.44211 28.4416 0.382812 18.5 0.382812C8.55832 0.382812 0.499023 8.44211 0.499023 18.3838C0.499023 21.8005 1.45093 24.9948 3.10401 27.7161L15.0359 48.3827C16.5755 51.0494 20.4245 51.0494 21.9641 48.3827L33.896 27.716Z" fill="#FF4262"/>
<path d="M33.896 27.716L33.0413 27.1968L33.0356 27.2063L33.03 27.216L33.896 27.716ZM3.10401 27.7161L3.97003 27.2161L3.96446 27.2065L3.95868 27.197L3.10401 27.7161ZM15.0359 48.3827L14.1698 48.8827L15.0359 48.3827ZM35.5009 18.3838C35.5009 21.6122 34.602 24.6276 33.0413 27.1968L34.7507 28.2352C36.4961 25.3618 37.5009 21.9886 37.5009 18.3838H35.5009ZM18.5 1.38281C27.8893 1.38281 35.5009 8.99439 35.5009 18.3838H37.5009C37.5009 7.88982 28.9939 -0.617188 18.5 -0.617188V1.38281ZM1.49902 18.3838C1.49902 8.99439 9.1106 1.38281 18.5 1.38281V-0.617188C8.00604 -0.617188 -0.500977 7.88982 -0.500977 18.3838H1.49902ZM3.95868 27.197C2.39797 24.6277 1.49902 21.6122 1.49902 18.3838H-0.500977C-0.500977 21.9887 0.503894 25.3619 2.24934 28.2353L3.95868 27.197ZM15.9019 47.8827L3.97003 27.2161L2.23798 28.2161L14.1698 48.8827L15.9019 47.8827ZM33.03 27.216L21.098 47.8827L22.8301 48.8827L34.762 28.216L33.03 27.216ZM14.1698 48.8827C16.0943 52.216 20.9056 52.216 22.8301 48.8827L21.098 47.8827C19.9433 49.8827 17.0566 49.8827 15.9019 47.8827L14.1698 48.8827Z" fill="white" mask="url(#path-1-inside-1_567_28330)"/>
</svg>
