<svg width="320" height="161" viewBox="0 0 320 161" fill="none" xmlns="http://www.w3.org/2000/svg">
<path d="M0 0.5H320V160.5H0V0.5Z" fill="#E8F2FC"/>
<path opacity="0.4" d="M224.86 79.8874C223.181 76.9411 220.896 74.3691 218.337 72.159C209.488 64.4877 197.224 61.1687 185.584 62.0441C178.672 62.5421 171.861 64.4537 165.642 67.5098C163.95 68.3388 162.301 69.2529 160.699 70.2412C152.505 65.4002 143.199 62.4539 133.73 62.1183C122.44 61.6559 110.729 64.9471 102.005 72.176C99.5315 74.2206 97.2827 76.5761 95.5319 79.275L95.153 79.8812C94.9968 80.1333 94.9519 80.4519 95.0571 80.7535C95.2427 81.2856 95.8242 81.5671 96.3578 81.3815C101.868 79.4884 107.665 78.33 113.485 78.1243C120.344 77.8242 127.242 78.7708 133.749 80.9515C136.129 81.7557 138.474 82.71 140.729 83.8174C147.806 87.336 154.22 92.296 159.33 98.3139C160.239 99.3934 161.989 99.3455 162.833 98.2087C168.812 90.4462 177.005 84.3092 186.203 80.8943C195.475 77.4113 205.733 76.8313 215.404 78.9177C218.188 79.5317 220.946 80.3452 223.609 81.3675C224.526 81.7155 225.334 80.7195 224.86 79.889V79.8874Z" fill="#4899EA"/>
</svg>
