<svg width="65" height="64" viewBox="0 0 65 64" fill="none" xmlns="http://www.w3.org/2000/svg">
<path d="M27.6366 11.2158L3.41256 50.3438C1.05256 54.1518 3.79656 59.0718 8.27656 59.0718H56.7246C61.2046 59.0718 63.9406 54.1518 61.5886 50.3438L37.3646 11.2158C35.1326 7.60777 29.8766 7.60777 27.6446 11.2158H27.6366Z" fill="#FA4D62"/>
<path d="M32.5006 41.9758C31.0046 41.9758 29.7886 40.7598 29.7886 39.2638V25.6958C29.7886 24.1998 31.0046 22.9838 32.5006 22.9838C33.9966 22.9838 35.2126 24.1998 35.2126 25.6958V39.2638C35.2126 40.7598 33.9966 41.9758 32.5006 41.9758Z" fill="white"/>
<path d="M32.5006 51.3118C30.8286 51.3118 29.4766 49.9598 29.4766 48.2878V48.1838C29.4766 46.5118 30.8286 45.1598 32.5006 45.1598C34.1726 45.1598 35.5246 46.5118 35.5246 48.1838V48.2878C35.5246 49.9598 34.1726 51.3118 32.5006 51.3118Z" fill="white"/>
</svg>
