<svg width="72" height="73" viewBox="0 0 72 73" fill="none" xmlns="http://www.w3.org/2000/svg">
<g filter="url(#filter0_d_550_53295)">
<rect x="8" y="8.75" width="56" height="56" rx="28" fill="#1A80E5" fill-opacity="0.2" shape-rendering="crispEdges"/>
<rect x="18" y="18.75" width="36" height="36" rx="18" fill="#1A80E5" fill-opacity="0.2"/>
<mask id="mask0_550_53295" style="mask-type:alpha" maskUnits="userSpaceOnUse" x="26" y="26" width="20" height="21">
<g clip-path="url(#clip0_550_53295)">
<path d="M36.0002 36.8729C36.8387 36.8729 37.5248 36.1869 37.5248 35.3483C37.5248 34.5098 36.8387 33.8238 36.0002 33.8238C35.1617 33.8238 34.4756 34.5098 34.4756 35.3483C34.4756 36.1869 35.1617 36.8729 36.0002 36.8729ZM36.0002 29.25C39.2018 29.25 42.0985 31.7046 42.0985 35.5008C42.0985 37.9249 40.2309 40.7759 36.5033 44.0613C36.2136 44.3129 35.7791 44.3129 35.4895 44.0613C31.7695 40.7759 29.9019 37.9249 29.9019 35.5008C29.9019 31.7046 32.7986 29.25 36.0002 29.25Z" fill="black"/>
</g>
</mask>
<g mask="url(#mask0_550_53295)">
<rect x="26" y="26.75" width="19.9999" height="20" fill="#1A80E5"/>
</g>
</g>
<defs>
<filter id="filter0_d_550_53295" x="0" y="0.75" width="72" height="72" filterUnits="userSpaceOnUse" color-interpolation-filters="sRGB">
<feFlood flood-opacity="0" result="BackgroundImageFix"/>
<feColorMatrix in="SourceAlpha" type="matrix" values="0 0 0 0 0 0 0 0 0 0 0 0 0 0 0 0 0 0 127 0" result="hardAlpha"/>
<feOffset/>
<feGaussianBlur stdDeviation="4"/>
<feComposite in2="hardAlpha" operator="out"/>
<feColorMatrix type="matrix" values="0 0 0 0 0 0 0 0 0 0 0 0 0 0 0 0 0 0 0.04 0"/>
<feBlend mode="normal" in2="BackgroundImageFix" result="effect1_dropShadow_550_53295"/>
<feBlend mode="normal" in="SourceGraphic" in2="effect1_dropShadow_550_53295" result="shape"/>
</filter>
<clipPath id="clip0_550_53295">
<rect width="20" height="20" fill="white" transform="translate(26 26.75)"/>
</clipPath>
</defs>
</svg>
