<svg width="80" height="80" viewBox="0 0 80 80" fill="none" xmlns="http://www.w3.org/2000/svg">
<path d="M32.6742 11.4437C31.7422 11.5677 30.8042 11.7877 29.9042 12.1017C28.4982 12.5917 27.1921 13.3178 26.1561 14.2818C25.6821 14.7218 25.2661 15.2098 24.9241 15.7478L24.1721 14.4058C23.9341 13.9818 23.9121 13.4978 24.0641 13.0777C24.2101 12.6777 24.5141 12.3357 24.9421 12.1537L29.7082 10.1277C30.2542 9.89572 30.8842 9.98372 31.3462 10.3597L32.6742 11.4437Z" fill="#006EC9"/>
<path d="M51.626 29.4955L49.814 30.7836L39.4819 38.1296C38.7059 38.6796 37.6239 38.4376 37.1599 37.6076L24.9258 15.7474C25.2678 15.2094 25.6838 14.7194 26.1578 14.2814C27.1958 13.3174 28.5018 12.5914 29.9058 12.1014C30.8038 11.7874 31.7438 11.5674 32.6759 11.4434L51.708 26.9535C52.5281 27.6215 52.4861 28.8855 51.626 29.4975V29.4955Z" fill="#0078ED"/>
<g style="mix-blend-mode:soft-light" opacity="0.3">
<path d="M49.8017 28.314L30.7715 12.8059L29.9075 12.1019L29.4415 11.7239C28.9815 11.3479 28.3515 11.2579 27.8055 11.4919L24.0674 13.0799C23.9154 13.4999 23.9394 13.9839 24.1754 14.4079L24.6674 15.2859L37.1595 37.6101C37.6235 38.4402 38.7076 38.6842 39.4816 38.1321L49.8137 30.7861C50.5817 30.1501 50.5897 28.9581 49.8017 28.316V28.314Z" fill="black"/>
</g>
<path d="M15.7393 33.9813C13.9773 32.9252 11.8853 32.3632 9.70524 32.3792C8.59923 32.3872 7.83323 33.4832 8.20723 34.5233L11.6653 44.1074C11.9293 44.8414 12.6833 45.2754 13.4513 45.1394L18.6993 44.2034C19.3213 40.7233 17.9273 36.8913 15.7393 33.9813Z" fill="#4FB6FF"/>
<path d="M18.5822 36.5004C17.8002 35.4824 16.8342 34.6384 15.7422 33.9824C17.9302 36.8925 19.3242 40.7245 18.7022 44.2045L19.3682 44.0865C20.1642 43.9445 20.7262 43.2325 20.6862 42.4245C20.6102 40.9025 20.1982 38.6045 18.5842 36.5004H18.5822Z" fill="#22A1EF"/>
<path d="M5.00093 42.2734C4.98493 42.7494 5.17493 43.2354 5.59694 43.5735C10.651 47.6395 24.0551 58.4676 24.1631 59.0316C24.2331 59.3956 25.1111 55.5896 25.9311 51.8775C18.1811 50.5635 10.835 47.5695 5.00093 42.2734Z" fill="#D3E3F2"/>
<path d="M5.97601 40.8534C5.358 41.1134 5.022 41.6854 5 42.2754C10.8341 47.5695 18.1801 50.5655 25.9302 51.8795C26.6762 48.5035 27.3742 45.2055 27.3742 45.2055C27.7002 45.1675 16.2241 36.5514 5.97601 40.8534Z" fill="#E0EFFF"/>
<path d="M74.0311 23.3605C74.1771 23.6225 74.3071 23.8885 74.4191 24.1585C75.2131 26.0666 75.1711 28.1546 74.4191 29.9666C73.7911 31.4886 72.6651 32.8186 71.1151 33.6866L25.8986 58.9889C24.6966 59.6609 23.1746 59.2329 22.5006 58.0289L16.3105 46.9668L63.705 20.4465C66.491 18.8885 69.8331 19.2725 72.1731 21.1585C72.9071 21.7485 73.5431 22.4885 74.0311 23.3605Z" fill="#E0EFFF"/>
<path d="M74.4198 24.1582C75.8798 27.6642 74.5118 31.7843 71.1157 33.6843L25.9353 58.9686C24.7133 59.6526 23.1672 59.2166 22.4832 57.9945L20.4492 54.3605L74.4198 24.1582Z" fill="#4FB6FF"/>
<path d="M56.4825 38.8008L54.6445 42.9028L40.0684 51.0609C40.6544 49.2989 41.3544 46.6469 40.9364 44.9628L56.4845 38.8028L56.4825 38.8008Z" fill="#22A1EF"/>
<path d="M41.5743 47.1429L46.0323 47.7209L60.6085 39.5628C58.6424 39.7708 57.3704 39.4548 56.1524 38.2168L41.5723 47.1409L41.5743 47.1429Z" fill="#22A1EF"/>
<g style="mix-blend-mode:soft-light" opacity="0.3">
<path d="M73.8443 24.9564C73.9823 25.2024 74.1023 25.4524 74.2043 25.7064C74.7744 27.1044 74.8424 28.6245 74.4683 30.0545C73.8083 31.5225 72.6643 32.8185 71.1143 33.6865L25.8979 58.9888C24.6959 59.6608 23.2078 59.2928 22.5758 58.1647L17.1758 48.5147L63.7482 22.4524C66.5343 20.8944 69.8163 21.1724 72.0723 22.9064C72.7803 23.4504 73.3863 24.1384 73.8443 24.9564Z" fill="black"/>
</g>
<path d="M60.6635 62.0078L61.1155 65.3798C61.1955 65.9678 60.9415 66.5519 60.4575 66.8959L56.2374 69.8959C55.9974 70.0659 55.7294 70.1619 55.4594 70.1879C54.8534 70.2439 54.2354 69.9499 53.9134 69.3759L53.1914 68.0859C54.0094 68.0999 54.8194 67.9999 55.5834 67.7359C56.1954 67.5259 56.7774 67.2119 57.3114 66.7719C57.9955 66.1999 58.6275 65.5378 59.1715 64.8078C59.8135 63.9518 60.3295 63.0038 60.6635 62.0078Z" fill="#37A9EF"/>
<path d="M57.6245 39.346L60.6646 62.0082C60.3306 63.0042 59.8126 63.9522 59.1726 64.8082C58.6306 65.5382 57.9965 66.2002 57.3125 66.7722C56.7805 67.2122 56.1965 67.5262 55.5845 67.7363C54.8205 68.0003 54.0105 68.1023 53.1925 68.0863L40.9304 46.174C40.6084 45.6 40.6804 44.92 41.0464 44.432C41.2104 44.216 41.4304 44.036 41.7004 43.922L55.4105 38.088C56.3845 37.6739 57.4845 38.3 57.6245 39.348V39.346Z" fill="#4FB6FF"/>
<g style="mix-blend-mode:soft-light" opacity="0.3">
<path d="M58.9279 62.9805L59.1739 64.8065L59.3819 66.3525C59.4619 66.9405 59.2079 67.5245 58.7239 67.8685L55.4639 70.1885C54.8579 70.2445 54.2399 69.9505 53.9178 69.3765L53.5898 68.7925C54.2959 68.5845 54.9659 68.2465 55.5759 67.7465C55.5799 67.7465 55.5839 67.7405 55.5879 67.7385C57.0719 66.4945 58.3139 64.8225 58.9299 62.9825L58.9279 62.9805Z" fill="black"/>
<path d="M55.8865 40.3206L58.9266 62.9828C58.3105 64.8229 57.0685 66.4949 55.5845 67.7389C55.5805 67.7389 55.5765 67.7449 55.5725 67.7469C54.9645 68.2489 54.2945 68.5869 53.5865 68.7929L40.9304 46.1747C40.6084 45.6007 40.6804 44.9207 41.0464 44.4327L53.6725 39.0606C54.6465 38.6466 55.7465 39.2726 55.8865 40.3206Z" fill="black"/>
</g>
<path d="M74.0316 23.3602L68.0075 26.7322C67.8475 26.8222 67.6435 26.7642 67.5555 26.6042L66.4975 24.7162C66.4075 24.5562 66.4655 24.3522 66.6255 24.2642L72.1736 21.1602C72.9076 21.7502 73.5436 22.4902 74.0316 23.3622V23.3602Z" fill="#0078ED"/>
<path d="M53.6516 31.5243L51.7614 32.582C51.6014 32.6716 51.5443 32.8739 51.6338 33.0339L52.6915 34.9241C52.781 35.0841 52.9833 35.1412 53.1434 35.0517L55.0336 33.994C55.1936 33.9044 55.2507 33.7021 55.1612 33.5421L54.1035 31.6519C54.0139 31.4919 53.8116 31.4348 53.6516 31.5243Z" fill="#0078ED"/>
<path d="M22.2227 46.2109C21.8327 46.1069 21.4067 46.1489 21.0307 46.3589L15.7886 49.2929C15.1086 49.6729 14.8006 50.4889 15.0626 51.2229L18.1406 59.915C23.5907 58.227 24.7727 50.8689 22.2227 46.2109Z" fill="#4FB6FF"/>
<path d="M23.1027 46.8089C22.8787 46.5049 22.5647 46.3029 22.2227 46.2109C24.7727 50.869 23.5907 58.2271 18.1406 59.9151L18.4626 60.8251C18.8306 61.8671 20.1206 62.2291 20.9807 61.5351C23.7267 59.3151 25.3407 56.075 25.2327 52.721C25.1467 50.071 24.0087 48.033 23.1027 46.8089Z" fill="#22A1EF"/>
<path d="M48.8421 34.2138L46.9518 35.2715C46.7918 35.361 46.7347 35.5633 46.8242 35.7233L47.8819 37.6135C47.9715 37.7735 48.1738 37.8307 48.3338 37.7411L50.224 36.6834C50.384 36.5939 50.4411 36.3916 50.3516 36.2316L49.2939 34.3414C49.2044 34.1814 49.0021 34.1242 48.8421 34.2138Z" fill="#0078ED"/>
<path d="M44.0325 36.9052L42.1423 37.9629C41.9823 38.0524 41.9251 38.2547 42.0147 38.4147L43.0724 40.3049C43.1619 40.465 43.3642 40.5221 43.5242 40.4326L45.4144 39.3748C45.5744 39.2853 45.6316 39.083 45.542 38.923L44.4843 37.0328C44.3948 36.8728 44.1925 36.8156 44.0325 36.9052Z" fill="#0078ED"/>
<path d="M38.884 39.786L36.9938 40.8437C36.8338 40.9333 36.7767 41.1356 36.8662 41.2956L37.9239 43.1858C38.0135 43.3458 38.2158 43.4029 38.3758 43.3134L40.266 42.2557C40.426 42.1662 40.4831 41.9639 40.3936 41.8039L39.3359 39.9136C39.2464 39.7536 39.0441 39.6965 38.884 39.786Z" fill="#0078ED"/>
<path d="M34.0764 42.4755L32.1862 43.5332C32.0262 43.6227 31.9691 43.825 32.0586 43.985L33.1163 45.8753C33.2058 46.0353 33.4082 46.0924 33.5682 46.0029L35.4584 44.9452C35.6184 44.8556 35.6755 44.6533 35.586 44.4933L34.5283 42.6031C34.4387 42.4431 34.2364 42.3859 34.0764 42.4755Z" fill="#0078ED"/>
<path d="M29.2688 45.1688L27.3786 46.2265C27.2186 46.3161 27.1615 46.5184 27.251 46.6784L28.3087 48.5686C28.3982 48.7286 28.6005 48.7858 28.7605 48.6962L30.6508 47.6385C30.8108 47.549 30.8679 47.3467 30.7784 47.1867L29.7207 45.2965C29.6311 45.1364 29.4288 45.0793 29.2688 45.1688Z" fill="#0078ED"/>
</svg>
