<svg width="80" height="80" viewBox="0 0 80 80" fill="none" xmlns="http://www.w3.org/2000/svg">
<path d="M64.1681 25.8037H63.5154C62.8613 25.8037 62.3311 26.4009 62.3311 27.1375V44.9149C62.3311 45.6515 62.8613 46.2487 63.5154 46.2487H64.1681C64.8223 46.2487 65.3525 45.6515 65.3525 44.9149V27.1375C65.3525 26.4009 64.8223 25.8037 64.1681 25.8037Z" fill="white"/>
<path d="M77.5265 36.4062V45.3711C77.5265 46.7663 77.1277 48.0039 76.5106 48.7844C76.0787 49.335 75.5375 49.6611 74.9512 49.6611H72.5944C71.1726 49.6611 70.0215 47.7419 70.0215 45.3711V36.4062C70.0215 34.0353 71.1726 32.1162 72.5944 32.1162H74.9512C76.373 32.1162 77.5241 34.0353 77.5241 36.4062H77.5265Z" fill="#1077CD"/>
<path d="M77.5258 36.4062V45.3711C77.5258 46.7663 77.127 48.0039 76.5099 48.7844H74.4117C72.99 48.7844 71.8389 46.8652 71.8389 44.4944V35.5295C71.8389 34.1342 72.2376 32.8967 72.8547 32.1162H74.9529C76.3746 32.1162 77.5258 34.0353 77.5258 36.4062Z" fill="#4899EA"/>
<path d="M75.6419 50.5586H71.906C70.8652 50.5586 70.0215 51.5088 70.0215 52.6809V54.8005C70.0215 55.9726 70.8652 56.9228 71.906 56.9228H75.6419C76.6828 56.9228 77.5265 55.9726 77.5265 54.8005V52.6809C77.5265 51.5088 76.6828 50.5586 75.6419 50.5586Z" fill="#4899EA"/>
<path d="M73.6551 47.8916C73.2469 45.0049 71.8156 42.765 70.0189 42.3266C69.8765 42.2919 69.7317 42.2678 69.5845 42.2571L65.3502 41.9203L62.3288 41.6798L52.3529 40.8886L12.7083 37.7426L4.5221 37.0931H4.50549C3.4208 37.0423 2.507 38.4777 2.47852 40.2926V40.3006C2.47852 40.3407 2.47852 40.3808 2.47852 40.4235C2.47852 40.5144 2.47852 40.6053 2.47852 40.7015C2.47852 40.8191 2.47852 40.9394 2.48089 41.0623C2.48089 41.1826 2.48326 41.3083 2.48801 41.4366C2.48801 41.5622 2.49513 41.6932 2.4975 41.8241C2.50225 41.9845 2.50937 42.1475 2.51412 42.3159C2.54023 42.92 2.5782 43.5668 2.63517 44.2484C2.66365 44.5959 2.69688 44.9541 2.73723 45.3203C2.7752 45.6811 2.81793 46.05 2.86777 46.4268C2.94372 47.0069 3.03154 47.6056 3.13598 48.2204C3.17158 48.4235 3.20718 48.6266 3.24516 48.8351C3.46827 50.0566 3.75071 51.3369 4.11149 52.66C4.13759 52.7589 4.1637 52.8578 4.19218 52.9567C4.26339 53.216 4.33934 53.4779 4.41767 53.7399C4.44852 53.8441 4.47938 53.951 4.51498 54.0553C4.7642 54.8652 5.0419 55.6884 5.35283 56.5224C5.3908 56.6213 5.42878 56.7228 5.46676 56.8217C5.81803 57.7439 6.20966 58.6767 6.64639 59.6122C6.98342 60.3339 7.34657 61.0609 7.74057 61.788C7.78329 61.8628 7.82127 61.9403 7.86637 62.0125C9.57054 65.0168 11.9417 66.7355 14.422 66.8424C14.5051 66.8451 14.5881 66.8477 14.6712 66.8477H69.1668C71.621 66.8477 73.6266 63.6483 73.7667 59.6122C73.7714 59.4652 73.7738 59.3182 73.7738 59.1685V49.5755C73.7738 48.9955 73.7334 48.4315 73.6575 47.8916H73.6551Z" fill="#E0EFFF"/>
<path d="M73.7738 46.1274V47.9022L52.5998 46.0953L12.8104 42.7034L6.03644 42.1261L2.49992 41.824C2.48331 41.244 2.47619 40.7041 2.48094 40.2149C2.4928 38.4214 3.39236 37.0021 4.46756 37.0877L12.7107 37.7425L52.3553 40.8885L71.6543 42.4201C72.841 42.5136 73.7762 44.1468 73.7762 46.1274H73.7738Z" fill="#0068EA"/>
<path d="M32.5762 35.2645C33.3476 32.9846 35.8943 26.4467 42.6659 22.0765C46.4184 19.6548 50.057 18.8102 52.3546 18.4814L49.9407 37.7076L32.5762 35.2672V35.2645Z" fill="#EFF6FC"/>
<path d="M52.3561 18.4814L50.436 34.0457C50.436 34.0457 32.3095 33.4951 18.6666 34.4146C11.9472 34.8689 6.31254 35.6788 4.4707 37.0874L52.3585 40.8883V33.7383L53.9131 18.4814H52.3561Z" fill="#4899EA"/>
<path d="M73.7644 59.6123C73.6267 63.6484 71.6211 66.8478 69.1645 66.8478H14.6072C14.5455 66.8478 14.4838 66.8478 14.4221 66.8425C11.937 66.7623 9.56589 65.0356 7.86646 62.0126C7.82374 61.9404 7.78339 61.8629 7.74067 61.788C7.34904 61.061 6.98352 60.334 6.64648 59.6123H73.762H73.7644Z" fill="#C4DEF7"/>
<g style="mix-blend-mode:soft-light">
<path d="M20.8281 66.8467H14.6071C14.5454 66.8467 14.4837 66.8467 14.422 66.8413C11.9369 66.7611 9.56579 65.0344 7.86637 62.0114C7.82364 61.9392 7.78329 61.8617 7.74057 61.7869C7.34894 61.0599 6.98342 60.3328 6.64639 59.6111C6.20966 58.6756 5.81803 57.7428 5.46676 56.8207C5.42878 56.7218 5.3908 56.6202 5.35283 56.5213C5.0419 55.6873 4.7642 54.8641 4.51498 54.0542C4.48175 53.95 4.44852 53.8431 4.41767 53.7388C4.33934 53.4769 4.26339 53.2149 4.19218 52.9556C4.1637 52.8567 4.13522 52.7579 4.11149 52.659C3.75071 51.3359 3.46589 50.0556 3.24516 48.834C3.20718 48.6256 3.17158 48.4224 3.13598 48.2193C3.03154 47.6045 2.94372 47.0058 2.86777 46.4258C2.8203 46.0489 2.77758 45.68 2.73723 45.3192C2.69688 44.953 2.66365 44.5948 2.63517 44.2474C2.5782 43.5658 2.53785 42.9189 2.51412 42.3149C2.507 42.1465 2.50225 41.9834 2.4975 41.8231C2.49513 41.6921 2.49038 41.5611 2.48801 41.4355C2.48564 41.3072 2.48326 41.1816 2.48089 41.0613C2.48089 40.9383 2.47852 40.818 2.47852 40.7004C2.47852 40.6042 2.47852 40.5133 2.47852 40.4225C2.47852 40.3797 2.47852 40.3396 2.47852 40.2995V40.1953C2.47852 40.0937 2.48326 39.9921 2.49038 39.8906C2.49276 39.8478 2.4975 39.805 2.49988 39.7623C2.49988 39.7435 2.50225 39.7275 2.507 39.7115C2.64466 38.3109 3.33535 37.231 4.18506 37.1001C4.27288 37.084 4.36545 37.0787 4.45564 37.0867H4.46751L4.51023 37.092H4.52685L12.7131 37.7415C12.6442 39.241 12.6632 40.8982 12.8127 42.7024C12.9552 44.4265 13.2162 46.2814 13.6411 48.2567C14.149 50.6302 14.8896 53.1722 15.9292 55.8611C16.4513 57.2109 16.9545 58.4565 17.4387 59.6111C18.7038 62.6235 19.8383 64.989 20.8328 66.8467H20.8281Z" fill="black"/>
</g>
<path d="M21.827 54.6299C23.4121 54.6299 24.697 53.3099 24.697 51.6816C24.697 50.0534 23.4121 48.7334 21.827 48.7334C20.242 48.7334 18.957 50.0534 18.957 51.6816C18.957 53.3099 20.242 54.6299 21.827 54.6299Z" fill="#4D6F8B"/>
<path d="M43.3241 54.6299C44.9092 54.6299 46.1941 53.3099 46.1941 51.6816C46.1941 50.0534 44.9092 48.7334 43.3241 48.7334C41.739 48.7334 40.4541 50.0534 40.4541 51.6816C40.4541 53.3099 41.739 54.6299 43.3241 54.6299Z" fill="#4D6F8B"/>
<path d="M32.5751 54.6299C34.1601 54.6299 35.4451 53.3099 35.4451 51.6816C35.4451 50.0534 34.1601 48.7334 32.5751 48.7334C30.99 48.7334 29.7051 50.0534 29.7051 51.6816C29.7051 53.3099 30.99 54.6299 32.5751 54.6299Z" fill="#4D6F8B"/>
</svg>
