<svg width="29" height="28" viewBox="0 0 29 28" fill="none" xmlns="http://www.w3.org/2000/svg">
<mask id="mask0_1426_32804" style="mask-type:alpha" maskUnits="userSpaceOnUse" x="0" y="0" width="29" height="28">
<path fill-rule="evenodd" clip-rule="evenodd" d="M15.1562 4.80214C15.7257 5.37165 15.7257 6.29502 15.1562 6.86453L9.47906 12.5417H22.2917C23.0971 12.5417 23.75 13.1946 23.75 14C23.75 14.8054 23.0971 15.4583 22.2917 15.4583H9.47906L15.1562 21.1355C15.7257 21.705 15.7257 22.6283 15.1562 23.1979C14.5867 23.7674 13.6633 23.7674 13.0938 23.1979L4.92714 15.0312C4.35762 14.4617 4.35762 13.5383 4.92714 12.9688L13.0938 4.80214C13.6633 4.23262 14.5867 4.23262 15.1562 4.80214Z" fill="#1E1E1E"/>
</mask>
<g mask="url(#mask0_1426_32804)">
<rect x="0.125" width="28" height="28" fill="#454D55"/>
</g>
</svg>
