<svg width="16" height="16" viewBox="0 0 16 16" fill="none" xmlns="http://www.w3.org/2000/svg">
<mask id="mask0_1734_24782" style="mask-type:alpha" maskUnits="userSpaceOnUse" x="0" y="0" width="16" height="16">
<path d="M7.99236 13.993C7.62316 13.993 7.25395 13.8807 6.93945 13.6491C1.36721 9.58597 1.31935 6.37193 1.33303 6.01403V5.85263C1.33303 3.72632 2.97393 2 4.98404 2C6.32411 2 7.37702 2.88421 7.9992 3.92281C8.62137 2.88421 9.68112 2 11.0144 2C13.0245 2 14.6654 3.72632 14.6654 5.85263C14.6654 5.95789 14.6654 6.05614 14.6517 6.1614C14.6517 6.71579 14.3919 9.75439 9.03843 13.6561C8.72393 13.8877 8.35472 14 7.98552 14L7.99236 13.993ZM4.98404 3.05263C3.53457 3.05263 2.35859 4.30877 2.35859 5.85263V6.03509C2.35859 6.08421 2.33124 8.99649 7.53427 12.793C7.80776 12.9895 8.17012 12.9895 8.44361 12.793C13.5714 9.05263 13.6193 6.25965 13.6193 6.14737C13.6261 6.00702 13.633 5.92982 13.633 5.85263C13.633 4.30877 12.457 3.05263 11.0075 3.05263C9.83837 3.05263 8.87434 4.13333 8.53249 5.20702C8.53249 5.20702 8.48463 5.36842 8.35472 5.49474C8.22482 5.62105 7.98552 5.61404 7.98552 5.61404C7.73939 5.61404 7.5206 5.45263 7.44539 5.21404C7.10354 4.14737 6.14634 3.05965 4.97036 3.05965L4.98404 3.05263Z" fill="#3B3E43"/>
</mask>
<g mask="url(#mask0_1734_24782)">
<rect width="16" height="16" fill="#454D55"/>
</g>
</svg>
