<svg width="28" height="28" viewBox="0 0 28 28" fill="none" xmlns="http://www.w3.org/2000/svg">
<rect x="0.5" y="0.5" width="27.0001" height="27" rx="13.5" fill="white"/>
<rect x="0.5" y="0.5" width="27.0001" height="27" rx="13.5" stroke="#1A80E5"/>
<mask id="mask0_641_29934" style="mask-type:alpha" maskUnits="userSpaceOnUse" x="6" y="6" width="16" height="16">
<path d="M13.9938 19.993C13.6246 19.993 13.2554 19.8807 12.9409 19.6491C7.36868 15.586 7.32082 12.3719 7.33449 12.014V11.8526C7.33449 9.72632 8.9754 8 10.9855 8C12.3256 8 13.3785 8.88421 14.0007 9.92281C14.6228 8.88421 15.6826 8 17.0158 8C19.0259 8 20.6668 9.72632 20.6668 11.8526C20.6668 11.9579 20.6668 12.0561 20.6532 12.1614C20.6532 12.7158 20.3933 15.7544 15.0399 19.6561C14.7254 19.8877 14.3562 20 13.987 20L13.9938 19.993Z" fill="#3B3E43"/>
</mask>
<g mask="url(#mask0_641_29934)">
<rect x="6" y="6" width="16" height="16" fill="#1A80E5"/>
</g>
</svg>
