<svg width="21" height="20" viewBox="0 0 21 20" fill="none" xmlns="http://www.w3.org/2000/svg">
<mask id="mask0_1638_16615" style="mask-type:alpha" maskUnits="userSpaceOnUse" x="0" y="0" width="21" height="20">
<g clip-path="url(#clip0_1638_16615)">
<path d="M10.6247 10.1229C11.4632 10.1229 12.1493 9.43686 12.1493 8.59834C12.1493 7.75981 11.4632 7.07375 10.6247 7.07375C9.78618 7.07375 9.10012 7.75981 9.10012 8.59834C9.10012 9.43686 9.78618 10.1229 10.6247 10.1229ZM10.6247 2.5C13.8263 2.5 16.723 4.95458 16.723 8.75079C16.723 11.1749 14.8554 14.0259 11.1278 17.3113C10.8381 17.5629 10.4036 17.5629 10.114 17.3113C6.39398 14.0259 4.52637 11.1749 4.52637 8.75079C4.52637 4.95458 7.42308 2.5 10.6247 2.5Z" fill="black"/>
</g>
</mask>
<g mask="url(#mask0_1638_16615)">
<rect x="0.625" width="19.9999" height="20" fill="#1A80E5"/>
</g>
<defs>
<clipPath id="clip0_1638_16615">
<rect width="20" height="20" fill="white" transform="translate(0.625)"/>
</clipPath>
</defs>
</svg>
