<svg width="16" height="16" viewBox="0 0 16 16" fill="none" xmlns="http://www.w3.org/2000/svg">
<mask id="mask0_225_10042" style="mask-type:alpha" maskUnits="userSpaceOnUse" x="0" y="0" width="16" height="16">
<g clip-path="url(#clip0_225_10042)">
<path d="M7.99976 8.09834C8.67058 8.09834 9.21943 7.54949 9.21943 6.87867C9.21943 6.20785 8.67058 5.659 7.99976 5.659C7.32895 5.659 6.7801 6.20785 6.7801 6.87867C6.7801 7.54949 7.32895 8.09834 7.99976 8.09834ZM7.99976 2C10.5611 2 12.8784 3.96366 12.8784 7.00064C12.8784 8.93991 11.3843 11.2207 8.40225 13.8491C8.17052 14.0503 7.82291 14.0503 7.59117 13.8491C4.61519 11.2207 3.12109 8.93991 3.12109 7.00064C3.12109 3.96366 5.43846 2 7.99976 2Z" fill="black"/>
</g>
</mask>
<g mask="url(#mask0_225_10042)">
<rect width="16" height="16" fill="#454D55"/>
</g>
<defs>
<clipPath id="clip0_225_10042">
<rect width="16" height="16" fill="white"/>
</clipPath>
</defs>
</svg>
