<svg width="29" height="28" viewBox="0 0 29 28" fill="none" xmlns="http://www.w3.org/2000/svg">
<mask id="mask0_1638_16602" style="mask-type:alpha" maskUnits="userSpaceOnUse" x="0" y="0" width="29" height="28">
<g clip-path="url(#clip0_1638_16602)">
<mask id="path-1-inside-1_1638_16602" fill="white">
<path fill-rule="evenodd" clip-rule="evenodd" d="M19.0103 5.42978C20.2459 6.66539 20.9401 8.34125 20.9401 10.0887V15.8538C20.9401 16.866 21.5767 17.7534 22.4649 18.1311C22.9589 18.3411 23.4108 18.7597 23.4108 19.2965C23.4108 19.8333 22.9757 20.2684 22.4389 20.2684H6.26396C5.72716 20.2684 5.29199 19.8333 5.29199 19.2965C5.29199 18.7597 5.74393 18.3411 6.23794 18.1311C7.12618 17.7534 7.76274 16.866 7.76274 15.8538V10.0887C7.76274 8.34125 8.45691 6.66539 9.69252 5.42978C10.9281 4.19416 12.604 3.5 14.3514 3.5C16.0988 3.5 17.7747 4.19416 19.0103 5.42978ZM13.7988 21.1842C12.8832 21.1842 12.1409 21.9265 12.1409 22.8421C12.1409 23.7577 12.8832 24.5 13.7988 24.5H14.904C15.8197 24.5 16.5619 23.7577 16.5619 22.8421C16.5619 21.9265 15.8197 21.1842 14.904 21.1842H13.7988Z"/>
</mask>
<path d="M19.0103 5.42978L17.9497 6.49044L19.0103 5.42978ZM22.4649 18.1311L23.0518 16.7506L22.4649 18.1311ZM6.23794 18.1311L6.8248 19.5115H6.8248L6.23794 18.1311ZM7.76274 10.0887H6.26274H7.76274ZM9.69252 5.42978L10.7532 6.49044L9.69252 5.42978ZM22.4401 10.0887C22.4401 7.94342 21.5879 5.88604 20.071 4.36912L17.9497 6.49044C18.904 7.44475 19.4401 8.73907 19.4401 10.0887H22.4401ZM22.4401 15.8538V10.0887H19.4401V15.8538H22.4401ZM23.0518 16.7506C22.6842 16.5944 22.4401 16.2293 22.4401 15.8538H19.4401C19.4401 17.5027 20.4691 18.9125 21.878 19.5115L23.0518 16.7506ZM24.9108 19.2965C24.9108 17.8614 23.7624 17.0528 23.0518 16.7506L21.878 19.5115C21.9137 19.5267 21.9451 19.5443 21.9692 19.5609C21.9938 19.5778 22.0017 19.5875 21.9984 19.5837C21.9949 19.5798 21.9733 19.5543 21.9517 19.5035C21.9288 19.4495 21.9108 19.3776 21.9108 19.2965H24.9108ZM22.4389 21.7684C23.8041 21.7684 24.9108 20.6617 24.9108 19.2965H21.9108C21.9108 19.0049 22.1472 18.7684 22.4389 18.7684V21.7684ZM6.26396 21.7684H22.4389V18.7684H6.26396V21.7684ZM3.79199 19.2965C3.79199 20.6617 4.89873 21.7684 6.26396 21.7684V18.7684C6.55558 18.7684 6.79199 19.0049 6.79199 19.2965H3.79199ZM5.65108 16.7506C4.94039 17.0528 3.79199 17.8614 3.79199 19.2965H6.79199C6.79199 19.3776 6.77404 19.4495 6.75111 19.5035C6.72954 19.5543 6.7079 19.5798 6.7044 19.5837C6.7011 19.5875 6.70907 19.5778 6.73359 19.5609C6.75769 19.5443 6.7891 19.5267 6.8248 19.5115L5.65108 16.7506ZM6.26274 15.8538C6.26274 16.2293 6.01865 16.5944 5.65108 16.7506L6.8248 19.5115C8.2337 18.9125 9.26274 17.5027 9.26274 15.8538H6.26274ZM6.26274 10.0887V15.8538H9.26274V10.0887H6.26274ZM8.63186 4.36912C7.11494 5.88604 6.26274 7.94342 6.26274 10.0887H9.26274C9.26274 8.73907 9.79887 7.44475 10.7532 6.49044L8.63186 4.36912ZM14.3514 2C12.2062 2 10.1488 2.8522 8.63186 4.36912L10.7532 6.49044C11.7075 5.53613 13.0018 5 14.3514 5V2ZM20.071 4.36912C18.5541 2.8522 16.4967 2 14.3514 2V5C15.701 5 16.9953 5.53613 17.9497 6.49044L20.071 4.36912ZM13.6409 22.8421C13.6409 22.7549 13.7116 22.6842 13.7988 22.6842V19.6842C12.0547 19.6842 10.6409 21.0981 10.6409 22.8421H13.6409ZM13.7988 23C13.7116 23 13.6409 22.9293 13.6409 22.8421H10.6409C10.6409 24.5862 12.0547 26 13.7988 26V23ZM14.904 23H13.7988V26H14.904V23ZM15.0619 22.8421C15.0619 22.9293 14.9912 23 14.904 23V26C16.6481 26 18.0619 24.5862 18.0619 22.8421H15.0619ZM14.904 22.6842C14.9912 22.6842 15.0619 22.7549 15.0619 22.8421H18.0619C18.0619 21.0981 16.6481 19.6842 14.904 19.6842V22.6842ZM13.7988 22.6842H14.904V19.6842H13.7988V22.6842Z" fill="black" mask="url(#path-1-inside-1_1638_16602)"/>
</g>
</mask>
<g mask="url(#mask0_1638_16602)">
<rect x="0.625" width="28" height="28" fill="#454D55"/>
</g>
<defs>
<clipPath id="clip0_1638_16602">
<rect width="28" height="28" fill="white" transform="translate(0.625)"/>
</clipPath>
</defs>
</svg>
