<svg width="16" height="16" viewBox="0 0 16 16" fill="none" xmlns="http://www.w3.org/2000/svg">
<mask id="mask0_1734_24796" style="mask-type:alpha" maskUnits="userSpaceOnUse" x="0" y="0" width="16" height="16">
<g clip-path="url(#clip0_1734_24796)">
<path fill-rule="evenodd" clip-rule="evenodd" d="M5.22244 3.5C5.06036 3.5 4.90492 3.56438 4.79032 3.67899C4.67571 3.7936 4.61133 3.94903 4.61133 4.11111V12.0284L7.7096 9.81536C7.88345 9.69118 8.11699 9.69118 8.29084 9.81536L11.3891 12.0284V4.11111C11.3891 3.94903 11.3247 3.7936 11.2101 3.67899C11.0955 3.56438 10.9401 3.5 10.778 3.5H5.22244ZM4.08321 2.97188C4.38535 2.66974 4.79515 2.5 5.22244 2.5H10.778C11.2053 2.5 11.6151 2.66974 11.9172 2.97188C12.2194 3.27403 12.3891 3.68382 12.3891 4.11111V13C12.3891 13.1873 12.2844 13.3589 12.1179 13.4446C11.9514 13.5303 11.7509 13.5157 11.5985 13.4069L8.00022 10.8367L4.40195 13.4069C4.24954 13.5157 4.04907 13.5303 3.88254 13.4446C3.716 13.3589 3.61133 13.1873 3.61133 13V4.11111C3.61133 3.68382 3.78107 3.27403 4.08321 2.97188Z" fill="#1E1E1E"/>
</g>
</mask>
<g mask="url(#mask0_1734_24796)">
<rect width="16" height="16" fill="#454D55"/>
</g>
<defs>
<clipPath id="clip0_1734_24796">
<rect width="16" height="16" fill="white"/>
</clipPath>
</defs>
</svg>
