<svg width="16" height="16" viewBox="0 0 16 16" fill="none" xmlns="http://www.w3.org/2000/svg">
<mask id="mask0_1734_24789" style="mask-type:alpha" maskUnits="userSpaceOnUse" x="0" y="0" width="16" height="16">
<path fill-rule="evenodd" clip-rule="evenodd" d="M3.33372 2.60039C3.13923 2.60039 2.95271 2.67765 2.81518 2.81518C2.67765 2.95271 2.60039 3.13923 2.60039 3.33372V12.5519L4.24279 10.9095C4.35531 10.7969 4.50793 10.7337 4.66706 10.7337H12.6671C12.8615 10.7337 13.0481 10.6565 13.1856 10.5189C13.3231 10.3814 13.4004 10.1949 13.4004 10.0004V3.33372C13.4004 3.13923 13.3231 2.95271 13.1856 2.81518C13.0481 2.67765 12.8615 2.60039 12.6671 2.60039H3.33372ZM1.96665 1.96665C2.32922 1.60408 2.82097 1.40039 3.33372 1.40039H12.6671C13.1798 1.40039 13.6716 1.60408 14.0341 1.96665C14.3967 2.32922 14.6004 2.82097 14.6004 3.33372V10.0004C14.6004 10.5131 14.3967 11.0049 14.0341 11.3675C13.6716 11.73 13.1798 11.9337 12.6671 11.9337H4.91559L2.42465 14.4247C2.25306 14.5963 1.99499 14.6476 1.77078 14.5547C1.54658 14.4618 1.40039 14.2431 1.40039 14.0004V3.33372C1.40039 2.82097 1.60408 2.32922 1.96665 1.96665Z" fill="#1E1E1E"/>
</mask>
<g mask="url(#mask0_1734_24789)">
<rect width="16" height="16" fill="#454D55"/>
</g>
</svg>
