<svg width="28" height="28" viewBox="0 0 28 28" fill="none" xmlns="http://www.w3.org/2000/svg">
<rect x="0.5" y="0.5" width="27.0001" height="27" rx="13.5" fill="white"/>
<rect x="0.5" y="0.5" width="27.0001" height="27" rx="13.5" stroke="#1A80E5"/>
<mask id="mask0_225_10032" style="mask-type:alpha" maskUnits="userSpaceOnUse" x="6" y="6" width="16" height="16">
<path d="M13.9924 19.993C13.6232 19.993 13.254 19.8807 12.9394 19.6491C7.36721 15.586 7.31935 12.3719 7.33303 12.014V11.8526C7.33303 9.72632 8.97393 8 10.984 8C12.3241 8 13.377 8.88421 13.9992 9.92281C14.6214 8.88421 15.6811 8 17.0144 8C19.0245 8 20.6654 9.72632 20.6654 11.8526C20.6654 11.9579 20.6654 12.0561 20.6517 12.1614C20.6517 12.7158 20.3919 15.7544 15.0384 19.6561C14.7239 19.8877 14.3547 20 13.9855 20L13.9924 19.993ZM10.984 9.05263C9.53457 9.05263 8.35859 10.3088 8.35859 11.8526V12.0351C8.35859 12.0842 8.33124 14.9965 13.5343 18.793C13.8078 18.9895 14.1701 18.9895 14.4436 18.793C19.5714 15.0526 19.6193 12.2596 19.6193 12.1474C19.6261 12.007 19.633 11.9298 19.633 11.8526C19.633 10.3088 18.457 9.05263 17.0075 9.05263C15.8384 9.05263 14.8743 10.1333 14.5325 11.207C14.5325 11.207 14.4846 11.3684 14.3547 11.4947C14.2248 11.6211 13.9855 11.614 13.9855 11.614C13.7394 11.614 13.5206 11.4526 13.4454 11.214C13.1035 10.1474 12.1463 9.05965 10.9704 9.05965L10.984 9.05263Z" fill="#3B3E43"/>
</mask>
<g mask="url(#mask0_225_10032)">
<rect x="6" y="6" width="16" height="16" fill="#1A80E5"/>
</g>
</svg>
