<svg width="28" height="28" viewBox="0 0 29 28" fill="none" xmlns="http://www.w3.org/2000/svg">
<mask id="mask0_1638_16596" style="mask-type:alpha" maskUnits="userSpaceOnUse" x="0" y="0" width="29" height="28">
<path d="M14.6126 24.4877C13.9665 24.4877 13.3204 24.2912 12.77 23.886C3.0186 16.7754 2.93484 11.1509 2.95877 10.5246V10.2421C2.95877 6.52105 5.83035 3.5 9.34804 3.5C11.6932 3.5 13.5358 5.04737 14.6246 6.86491C15.7134 5.04737 17.5679 3.5 19.9011 3.5C23.4188 3.5 26.2904 6.52105 26.2904 10.2421C26.2904 10.4263 26.2904 10.5982 26.2664 10.7825C26.2664 11.7526 25.8118 17.0702 16.4432 23.8982C15.8928 24.3035 15.2467 24.5 14.6006 24.5L14.6126 24.4877ZM9.34804 5.34211C6.81148 5.34211 4.75351 7.54035 4.75351 10.2421V10.5614C4.75351 10.6474 4.70565 15.7439 13.811 22.3877C14.2895 22.7316 14.9237 22.7316 15.4023 22.3877C24.376 15.8421 24.4597 10.9544 24.4597 10.7579C24.4717 10.5123 24.4837 10.3772 24.4837 10.2421C24.4837 7.54035 22.4257 5.34211 19.8891 5.34211C17.8431 5.34211 16.1561 7.23333 15.5578 9.11228C15.5578 9.11228 15.4741 9.39474 15.2467 9.61579C15.0194 9.83684 14.6006 9.82456 14.6006 9.82456C14.1699 9.82456 13.787 9.54211 13.6554 9.12456C13.0572 7.25789 11.3821 5.35439 9.32411 5.35439L9.34804 5.34211Z" fill="#3B3E43"/>
</mask>
<g mask="url(#mask0_1638_16596)">
<rect x="0.625" width="28" height="28" fill="#454D55"/>
</g>
</svg>
