<svg width="28" height="28" viewBox="0 0 29 28" fill="none" xmlns="http://www.w3.org/2000/svg">
<mask id="mask0_1638_16590" style="mask-type:alpha" maskUnits="userSpaceOnUse" x="0" y="0" width="29" height="28">
<path fill-rule="evenodd" clip-rule="evenodd" d="M18.6712 19.2833C17.1349 20.5449 15.1687 21.3023 13.0256 21.3023C8.10941 21.3023 4.12402 17.3169 4.12402 12.4006C4.12402 7.48441 8.10941 3.49902 13.0256 3.49902C17.9419 3.49902 21.9273 7.48441 21.9273 12.4006C21.9273 14.5436 21.17 16.5096 19.9086 18.0459L24.8698 23.0071C25.2115 23.3488 25.2115 23.9028 24.8698 24.2446C24.5281 24.5863 23.9741 24.5863 23.6324 24.2446L18.6712 19.2833ZM5.87402 12.4006C5.87402 8.45091 9.07591 5.24902 13.0256 5.24902C16.9754 5.24902 20.1773 8.45091 20.1773 12.4006C20.1773 14.3423 19.4035 16.1032 18.1475 17.3919C18.1238 17.411 18.1009 17.4316 18.0789 17.4536C18.0569 17.4757 18.0363 17.4986 18.0171 17.5223C16.7284 18.7784 14.9674 19.5523 13.0256 19.5523C9.07591 19.5523 5.87402 16.3504 5.87402 12.4006Z" fill="black"/>
</mask>
<g mask="url(#mask0_1638_16590)">
<rect x="0.625" width="28" height="28" fill="#454D55"/>
</g>
</svg>
