<svg width="16" height="16" viewBox="0 0 16 16" fill="none" xmlns="http://www.w3.org/2000/svg">
<mask id="mask0_225_10023" style="mask-type:alpha" maskUnits="userSpaceOnUse" x="0" y="0" width="16" height="16">
<g clip-path="url(#clip0_225_10023)">
<path d="M7.99978 12.0496L11.0446 13.8912C11.6022 14.2287 12.2845 13.7298 12.1378 13.0988L11.3307 9.63582L14.0233 7.3027C14.5149 6.87717 14.2508 6.07011 13.6051 6.01875L10.0614 5.71794L8.67477 2.44571C8.42532 1.85143 7.57425 1.85143 7.32479 2.44571L5.93813 5.71061L2.39444 6.01142C1.74879 6.06278 1.48467 6.86983 1.97624 7.29536L4.66886 9.62848L3.8618 13.0915C3.71507 13.7224 4.39739 14.2213 4.95499 13.8838L7.99978 12.0496Z" fill="#323232"/>
</g>
</mask>
<g mask="url(#mask0_225_10023)">
<rect width="16" height="16" fill="#1A80E5"/>
</g>
<defs>
<clipPath id="clip0_225_10023">
<rect width="16" height="16" fill="white"/>
</clipPath>
</defs>
</svg>
